Coordinates
version=1
nRows=60
nColumns=12
inDegrees=yes

Units are S.I. units (second, meters, Newtons, ...)
Angles are in degrees

endheader
time	SC_y	SC_z	SC_x	AC_y	AC_z	AC_x	GH_y	GH_z	GH_yy	EL_x	PS_y
       0.0              -38.18          35.71           36.3          55.55         -11.11         -17.07         -80.66          36.25         -44.38          75.01          53.72
   0.03547              -38.17           35.7           36.3          55.55         -11.11         -17.07         -80.65          36.25          -44.4          75.01          53.72
   0.07094              -38.17           35.7           36.3          55.54         -11.11         -17.06         -80.63          36.26         -44.42          75.01          53.74
    0.1064              -38.17          35.69           36.3          55.54          -11.1         -17.06         -80.62          36.27         -44.43           75.0          53.75
    0.1419              -38.17          35.69           36.3          55.54          -11.1         -17.05         -80.61          36.28         -44.45           75.0          53.76
    0.1774              -38.17          35.69           36.3          55.53          -11.1         -17.05         -80.59          36.29         -44.47           75.0          53.77
    0.2128              -38.17          35.68           36.3          55.53         -11.09         -17.04         -80.57          36.29          -44.5           75.0          53.78
    0.2483              -38.17          35.68           36.3          55.53         -11.09         -17.03         -80.56           36.3         -44.52           75.0           53.8
    0.2838              -38.17          35.67           36.3          55.52         -11.09         -17.03         -80.54          36.31         -44.54          74.99          53.81
    0.3192              -38.17          35.66           36.3          55.52         -11.08         -17.02         -80.52          36.33         -44.57          74.99          53.83
    0.3547              -38.17          35.66           36.3          55.52         -11.08         -17.01         -80.49          36.34          -44.6          74.99          53.85
    0.3902              -38.17          35.65          36.29          55.51         -11.07          -17.0         -80.47          36.35         -44.63          74.98          53.87
    0.4256              -38.17          35.64          36.29          55.51         -11.07         -16.99         -80.44          36.37         -44.66          74.98          53.89
    0.4611              -38.17          35.64          36.29           55.5         -11.06         -16.98         -80.42          36.38          -44.7          74.97          53.91
    0.4966              -38.17          35.63          36.29           55.5         -11.06         -16.97         -80.39           36.4         -44.74          74.97          53.93
    0.5321              -38.17          35.62          36.29          55.49         -11.05         -16.96         -80.35          36.42         -44.78          74.97          53.96
    0.5675              -38.17          35.61          36.29          55.48         -11.04         -16.95         -80.32          36.43         -44.83          74.96          53.99
     0.603              -38.17           35.6          36.29          55.47         -11.03         -16.93         -80.28          36.46         -44.88          74.95          54.02
    0.6385              -38.17          35.59          36.28          55.47         -11.03         -16.92         -80.24          36.48         -44.93          74.95          54.05
    0.6739              -38.17          35.57          36.28          55.46         -11.02          -16.9         -80.19           36.5         -44.99          74.94          54.09
    0.7094              -38.17          35.56          36.28          55.45         -11.01         -16.88         -80.14          36.53         -45.06          74.93          54.13
    0.7449              -38.17          35.54          36.28          55.44         -10.99         -16.86         -80.08          36.56         -45.13          74.93          54.17
    0.7804              -38.17          35.52          36.27          55.43         -10.98         -16.84         -80.02           36.6         -45.21          74.92          54.22
    0.8158              -38.17          35.51          36.27          55.41         -10.97         -16.81         -79.95          36.63          -45.3          74.91          54.27
    0.8513              -38.16          35.48          36.27           55.4         -10.95         -16.78         -79.88          36.68          -45.4           74.9          54.33
    0.8868              -38.16          35.46          36.26          55.38         -10.93         -16.75         -79.79          36.72         -45.51          74.88           54.4
    0.9222              -38.16          35.43          36.26          55.36         -10.91         -16.72          -79.7          36.77         -45.63          74.87          54.47
    0.9577              -38.16           35.4          36.25          55.34         -10.89         -16.68         -79.59          36.83         -45.77          74.85          54.56
    0.9932              -38.16          35.37          36.25          55.32         -10.87         -16.63         -79.47           36.9         -45.93          74.84          54.65
     1.029              -38.16          35.33          36.24          55.29         -10.84         -16.58         -79.33          36.97         -46.11          74.82          54.76
     1.064              -38.16          35.28          36.23          55.26         -10.81         -16.52         -79.17          37.06         -46.31          74.79          54.88
       1.1              -38.15          35.23          36.22          55.23         -10.77         -16.46          -79.0          37.16         -46.54          74.77          55.03
     1.135              -38.15          35.18          36.21          55.19         -10.73         -16.38         -78.79          37.27         -46.81          74.74          55.19
     1.171              -38.15          35.11           36.2          55.14         -10.68         -16.29         -78.55           37.4         -47.12           74.7          55.38
     1.206              -38.14          35.03          36.19          55.09         -10.62         -16.19         -78.26          37.56         -47.49          74.66           55.6
     1.241              -38.14          34.93          36.17          55.02         -10.55         -16.06         -77.93          37.74         -47.92          74.61          55.86
     1.277              -38.13          34.82          36.15          54.95         -10.47         -15.92         -77.54          37.96         -48.43          74.55          56.18
     1.312              -38.13          34.69          36.13          54.86         -10.38         -15.74         -77.06          38.22         -49.05          74.49          56.55
     1.348              -38.12          34.52           36.1          54.75         -10.26         -15.53         -76.49          38.53         -49.79           74.4           57.0
     1.383              -38.11          34.33          36.06          54.61         -10.11         -15.27         -75.79          38.91          -50.7           74.3          57.55
     1.419               -38.1          34.08          36.02          54.44         -9.937         -14.95         -74.92          39.39         -51.82          74.17          58.23
     1.454              -38.09          33.77          35.97          54.24         -9.717         -14.55         -73.84          39.98         -53.21          74.02          59.08
      1.49              -38.07          33.39           35.9          53.97         -9.439         -14.05         -72.49          40.72         -54.97          73.82          60.15
     1.525              -38.05           32.9          35.82          53.64         -9.085         -13.41         -70.76          41.67         -57.21          73.57          61.51
     1.561              -38.02          32.27          35.71          53.22         -8.633         -12.59         -68.55          42.88         -60.07          73.24          63.25
     1.596              -37.98          31.47          35.57          52.67         -8.052         -11.54         -65.71          44.43         -63.75          72.83          65.49
     1.632              -37.94          30.44          35.39          51.97         -7.311          -10.2         -62.09          46.41         -68.44           72.3          68.34
     1.667              -37.88          29.15          35.16           51.1         -6.378         -8.512         -57.54          48.91         -74.34          71.64          71.93
     1.703              -37.81          27.58          34.89          50.03         -5.242         -6.457         -51.99          51.95         -81.53          70.83           76.3
     1.738              -37.72          25.76          34.57          48.79         -3.925         -4.075         -45.55          55.47         -89.87          69.89          81.36
     1.774              -37.63          23.78          34.22          47.45         -2.499         -1.496         -38.58          59.28          -98.9          68.87          86.85
     1.809              -37.55          21.81          33.88          46.11         -1.073          1.084         -31.62           63.1         -107.9          67.86          92.34
     1.844              -37.46          19.99          33.56          44.87          0.244          3.466         -25.18          66.62         -116.3          66.92           97.4
      1.88              -37.39          18.42          33.29           43.8           1.38          5.521         -19.63          69.66         -123.5          66.11          101.8
     1.915              -37.33          17.12          33.06          42.93          2.313          7.207         -15.08          72.16         -129.4          65.45          105.4
     1.951              -37.29           16.1          32.88          42.23          3.054          8.548         -11.46          74.14         -134.0          64.92          108.2
     1.986              -37.25          15.29          32.74          41.68          3.635          9.598         -8.619          75.69         -137.7           64.5          110.4
     2.022              -37.22          14.67          32.63          41.26          4.087          10.42         -6.409           76.9         -140.6          64.18          112.2
     2.057               -37.2          14.18          32.55          40.92           4.44          11.06         -4.683          77.85         -142.8          63.93          113.5
     2.093              -37.18          13.79          32.48          40.66          4.718          11.56         -3.324          78.59         -144.6          63.73          114.6
